<svg height="512pt" viewBox="0 -85 512.00217 512" width="512pt" xmlns="http://www.w3.org/2000/svg"><path d="m119.46875 256.003906c0-18.851562-15.28125-34.132812-34.132812-34.132812-18.851563 0-34.132813 15.28125-34.132813 34.132812 0 18.851563 15.28125 34.132813 34.132813 34.132813 18.84375-.019531 34.113281-15.289063 34.132812-34.132813zm-51.199219 0c0-9.425781 7.640625-17.066406 17.066407-17.066406 9.425781 0 17.066406 7.640625 17.066406 17.066406 0 9.425782-7.640625 17.066406-17.066406 17.066406-9.421876-.007812-17.058594-7.644531-17.066407-17.066406zm0 0"/><path d="m503.46875 119.46875h-169.273438c16.707032-38.207031 3.335938-82.890625-31.605468-105.644531-34.945313-22.757813-81.21875-16.910157-109.40625 13.820312l-.042969.03125-168.234375 168.042969c-.109375.113281-.144531.261719-.25.375-24.207031 24.46875-31.332031 61.085938-18.0625 92.84375 13.265625 31.757812 44.324219 52.425781 78.742188 52.398438h213.332031c4.714843 0 8.535156-3.820313 8.535156-8.53125 0-4.714844-3.820313-8.535157-8.535156-8.535157h-13.53125l17.066406-17.066406h30.597656c4.714844 0 8.535157-3.820313 8.535157-8.53125 0-4.714844-3.820313-8.535156-8.535157-8.535156h-13.53125l17.066407-17.066407h30.597656c4.714844 0 8.535156-3.820312 8.535156-8.53125 0-4.714843-3.820312-8.535156-8.535156-8.535156h-13.53125l17.066406-17.066406h30.601562c4.710938 0 8.53125-3.820312 8.53125-8.535156 0-4.710938-3.820312-8.53125-8.53125-8.53125h-13.535156l17.066406-17.066406h30.601563c4.710937 0 8.53125-3.820313 8.53125-8.535157 0-4.710937-3.820313-8.53125-8.53125-8.53125h-13.535156l17.066406-17.066406h30.601563c4.710937 0 8.53125-3.820313 8.53125-8.535156 0-4.710938-3.820313-8.53125-8.53125-8.53125h-13.535157l17.070313-17.066407h30.597656c4.714844 0 8.535156-3.820312 8.535156-8.535156 0-4.710937-3.820312-8.535156-8.535156-8.535156zm-179.199219-34.132812c.066407 18.105468-7.140625 35.476562-20.007812 48.214843l-.007813.011719-.015625.007812-134.535156 134.570313c4.0625-26.640625-4.796875-53.625-23.855469-72.675781-19.0625-19.050782-46.050781-27.898438-72.6875-23.824219l132.039063-131.890625c.050781-.050781.066406-.125.117187-.175781.050782-.054688.125-.078125.179688-.132813 18.960937-20.882812 48.8125-27.949218 75.125-17.785156 26.308594 10.167969 43.65625 35.472656 43.648437 63.679688zm-307.199219 170.667968c0-37.703125 30.5625-68.265625 68.265626-68.265625 37.703124 0 68.265624 30.5625 68.265624 68.265625s-30.5625 68.265625-68.265624 68.265625c-37.683594-.042969-68.222657-30.582031-68.265626-68.265625zm127.558594 61.238282c.113282-.101563.253906-.132813.363282-.242188l171.3125-171.359375.007812-.007813c2.824219-2.851562 5.445312-5.898437 7.84375-9.117187l.113281.023437h124.464844l-156.101563 156.101563-31.632812 31.628906h-124.679688c2.914063-2.164062 5.6875-4.511719 8.308594-7.027343zm0 0"/></svg>
