<svg id="Layer_1" enable-background="new 0 0 512 512" height="512" viewBox="0 0 512 512" width="512" xmlns="http://www.w3.org/2000/svg"><g><g><path d="m485.096 214.807-63.031-137.987c-6.227-13.631-13.288-20.903-26.982-27.79-.36-.181-.732-.341-1.112-.477l-48.79-17.528c.229-3.161-1.043-6.285-3.515-8.369l-24.085-20.302c-2.259-1.904-5.245-2.712-8.155-2.207-1.3.226-2.518.715-3.609 1.402-.281.11-.56.229-.834.366-14.936 7.48-31.873 11.434-48.983 11.434s-34.047-3.954-48.982-11.434c-.274-.137-.552-.255-.832-.365-1.091-.687-2.31-1.177-3.611-1.403-2.913-.505-5.896.303-8.155 2.207l-24.084 20.302c-2.472 2.084-3.744 5.209-3.515 8.369l-48.79 17.528c-.38.136-.751.296-1.112.477-13.695 6.887-20.756 14.159-26.983 27.791l-63.032 137.986c-2.086 4.567-.462 9.974 3.796 12.635l75.302 47.063v207.494c0 4.883 3.526 9.051 8.341 9.861l118.892 20c2.018.338 4.091.051 5.941-.824l16.824-7.97 16.823 7.971c1.344.637 2.808.963 4.282.963.553 0 1.108-.046 1.659-.139l118.892-20c4.815-.81 8.341-4.979 8.341-9.861v-207.494l75.303-47.064c4.258-2.661 5.882-8.068 3.796-12.635zm-161.049-180.844-21.176 87.591-33.292-20.209 44.216-76.024zm-35.699-4.673-32.348 55.62-32.348-55.62c10.505 2.671 21.4 4.059 32.348 4.059s21.843-1.387 32.348-4.059zm-90.142-3.97 44.216 76.024-33.292 20.209-21.176-87.591zm207.791 225.601v-61.96c0-5.523-4.477-10-10-10s-10 4.477-10 10v284.581l-107.451 18.076-12.546-5.946v-142.272c0-5.523-4.477-10-10-10s-10 4.477-10 10v142.272l-12.546 5.945-107.451-18.076v-284.581c0-5.523-4.477-10-10-10s-10 4.477-10 10v61.96l-57.26-35.787 59.384-130.002c4.247-9.297 8.006-13.244 17.249-17.965l46.03-16.537 21.498 88.922c.75 3.102 2.935 5.659 5.881 6.884 1.233.513 2.538.766 3.838.766 1.806 0 3.604-.489 5.189-1.452l38.188-23.18v130.831c0 5.523 4.477 10 10 10s10-4.477 10-10v-130.831l38.187 23.18c1.586.963 3.383 1.452 5.189 1.452 1.3 0 2.605-.253 3.838-.766 2.946-1.225 5.131-3.782 5.881-6.884l21.498-88.922 46.03 16.536c9.243 4.722 13.002 8.668 17.249 17.965l59.384 130.003z"/><path d="m355.996 178.96h-59.995c-5.523 0-10 4.477-10 10v59.995c0 4.304 2.754 8.126 6.837 9.487l29.998 10c1.026.342 2.095.513 3.163.513s2.136-.171 3.163-.513l29.998-10c4.083-1.361 6.837-5.183 6.837-9.487v-59.995c-.001-5.523-4.478-10-10.001-10zm-10 62.788-19.998 6.667-19.998-6.667v-42.788h39.995v42.788z"/><path d="m256 288.4h-.008c-5.523 0-9.996 4.477-9.996 10s4.481 10 10.004 10 10-4.477 10-10-4.477-10-10-10z"/></g></g></svg>
