<svg height="512" viewBox="0 0 60 56" width="512" xmlns="http://www.w3.org/2000/svg"><path id="Shape" d="m59.59 4.44c.5053405.22643675 1.0985633.00034055 1.325-.505s.0003405-1.09856325-.505-1.325c-19.72-8.89-39.12 9.47-58 .95-.50534054-.22643674-1.09856324-.00034053-1.32499999.50500001-.22643674.50534054-.00034055 1.09856324.50499999 1.32499999 1.42502763.63667618 2.89999794 1.15508978 4.41 1.55v3.93c-1.22896177-.3424906-2.42928193-.7804904-3.59-1.31-.50534054-.22643673-1.09856324-.00034053-1.32499998.505-.22643674.5053405-.00034055 1.0985632.50499998 1.325 1.42502763.6366762 2.89999794 1.1550898 4.41 1.55v3.93c-1.22896177-.3424906-2.42928193-.7804904-3.59-1.31-.50534055-.2264367-1.09856325-.0003405-1.325.505s-.00034055 1.0985633.505 1.325c1.42502763.6366762 2.89999794 1.1550898 4.41 1.55v3.93c-1.22896177-.3424906-2.42928193-.7804904-3.59-1.31-.32689801-.1464789-.7071098-.107433-.99741324.1024296-.29030345.2098625-.44659457.5586586-.41.915.03659456.3563414.26051523.6660915.58741324.8125704 1.42502763.6366762 2.89999794 1.1550898 4.41 1.55v3.93c-1.22896177-.3424906-2.42928193-.7804904-3.59-1.31-.50534054-.2264367-1.09856322-.0003405-1.32499996.505s-.00034056 1.0985632.50499996 1.325c1.42502763.6366762 2.89999794 1.1550898 4.41 1.55v3.93c-1.22896177-.3424906-2.42928193-.7804904-3.59-1.31-.32689801-.1464789-.7071098-.107433-.99741324.1024296-.29030345.2098625-.44659457.5586586-.41.915.03659456.3563414.26051523.6660915.58741324.8125704 1.42502763.6366762 2.89999794 1.1550898 4.41 1.55v3.93c-1.22896177-.3424906-2.42928193-.7804904-3.59-1.31-.50534054-.2264367-1.09856322-.0003405-1.32499996.505s-.00034056 1.0985632.50499996 1.325c1.42502763.6366762 2.89999794 1.1550898 4.41 1.55v3.93c-1.22896177-.3424906-2.42928193-.7804904-3.59-1.31-.50534054-.2264367-1.09856322-.0003405-1.32499996.505s-.00034056 1.0985632.50499996 1.325c1.42502763.6366762 2.89999794 1.1550898 4.41 1.55v3.93c-1.22896177-.3424906-2.42928193-.7804904-3.59-1.31-.50534054-.2264367-1.09856322-.0003405-1.32499996.505s-.00034056 1.0985632.50499996 1.325c18 8.13 35.89-6.55 53.19-2.58 3.41.79 4.67 1.72 5.22 1.72.478667.0088487.8964554-.3228028.9964341-.7909958s-.1459034-.9415658-.5864341-1.1290042c-1.4250276-.6366762-2.8999979-1.1550898-4.41-1.55v-3.93c1.2289618.3424906 2.4292819.7804904 3.59 1.31.1287602.0586689.2685051.0893446.41.09.478667.0088487.8964554-.3228028.9964341-.7909958s-.1459034-.9415658-.5864341-1.1290042c-1.4250276-.6366762-2.8999979-1.1550898-4.41-1.55v-3.93c1.2289618.3424906 2.4292819.7804904 3.59 1.31.1287602.0586689.2685051.0893446.41.09.478667.0088487.8964554-.3228028.9964341-.7909958s-.1459034-.9415658-.5864341-1.1290042c-1.4250276-.6366762-2.8999979-1.1550898-4.41-1.55v-3.93c1.2289618.3424906 2.4292819.7804904 3.59 1.31.1287602.0586689.2685051.0893446.41.09.478667.0088487.8964554-.3228028.9964341-.7909958s-.1459034-.9415658-.5864341-1.1290042c-1.4250276-.6366762-2.8999979-1.1550898-4.41-1.55v-3.93c1.2289618.3424906 2.4292819.7804904 3.59 1.31.1287602.0586689.2685051.0893446.41.09.478667.0088487.8964554-.3228028.9964341-.7909958s-.1459034-.9415658-.5864341-1.1290042c-1.4250276-.6366762-2.8999979-1.1550898-4.41-1.55v-3.93c1.2289618.3424906 2.4292819.7804904 3.59 1.31.1287602.0586689.2685051.0893446.41.09.478667.0088487.8964554-.3228028.9964341-.7909958s-.1459034-.9415658-.5864341-1.1290042c-1.4250276-.6366762-2.8999979-1.1550898-4.41-1.55v-3.93c1.2289618.3424906 2.4292819.7804904 3.59 1.31.1287602.0586689.2685051.0893446.41.09.478667.0088487.8964554-.3228028.9964341-.7909958s-.1459034-.9415658-.5864341-1.1290042c-1.4250276-.6366762-2.8999979-1.1550898-4.41-1.55v-3.93c1.2289618.34249058 2.4292819.78049041 3.59 1.31.1287602.0586689.2685051.0893446.41.09.478667.0088487.8964554-.3228028.9964341-.79099584.0999787-.46819299-.1459034-.9415658-.5864341-1.12900416-1.4250276-.63667618-2.8999979-1.15508978-4.41-1.55v-3.93c1.2289618.34249058 2.4292819.78049041 3.59 1.31zm-5.59 38.4c-1.26-1.46-2.5633333-2.8833333-3.91-4.27 1.3333333-1.3333333 2.6366667-2.51 3.91-3.53zm-9.64-1.24c-.89-.78-1.8-1.57-2.75-2.36 1.0133333-1.18 1.9766667-2.2833333 2.89-3.31 1 .87 1.87 1.74 2.76 2.62-.94.95-1.9 1.96-2.9 3.05zm-11.93 8.85c2.59-3.25 5.25-6.55 7.88-9.68.94.78 1.84 1.54 2.7 2.31-1.66 1.86-3.45 3.94-5.45 6.34-5.64 1.19-4.79 1.28-5.13 1.03zm-8.29 2.15c-1.87-1.5-3.57-2.92-5.15-4.32.94-1.04 1.94-2.1633333 3-3.37 2.56 2.07 5.12 4 7.64 5.9l-.52.64c-1.68.41-3.32.8-4.97 1.15zm-9.4-8.29c.94-1 1.89-2 2.89-3 .89.78 1.8 1.57 2.76 2.37-1 1.18-2 2.28-2.88 3.3-.96-.91-1.88-1.79-2.77-2.67zm-6.74-31.15c1.26 1.46 2.5633333 2.8833333 3.91 4.27-1.3333333 1.3333333-2.63666667 2.51-3.91 3.53zm9.64 1.24c.89.78 1.8 1.57 2.75 2.36-1.0133333 1.18-1.9766667 2.2833333-2.89 3.31-.95-.87-1.87-1.74-2.76-2.62.94-.95 1.9-1.96 2.9-3.05zm11.93-8.85c-2.57 3.25-5.25 6.55-7.88 9.68-.94-.78-1.84-1.54-2.7-2.31 1.66-1.86 3.45-3.94 5.45-6.34 5.64-1.19 4.79-1.28 5.13-1.03zm8.29-2.15c1.87 1.5 3.57 2.92 5.14 4.32-.94 1.04-1.9233333 2.16333333-2.95 3.37-2.56-2.07-5.12-4-7.64-5.9l.52-.64c1.64-.41 3.28-.8 4.93-1.15zm9.4 8.29c-.94 1-1.89 2-2.89 3-.89-.78-1.8-1.57-2.76-2.37 1-1.18 2-2.28 2.88-3.3.96.91 1.88 1.79 2.77 2.67zm6.74 7.4v4.91l-.25.2c-2.4760841-2.855331-5.1137402-5.5664408-7.9-8.12 1-1.06 1.91-2 2.82-3 1.86 1.92 3.62 3.92 5.33 6.01zm-9.63 14c-2.79-2.47-5.49-4.62-7.7-6.32 2.24-2.75 5-6.08 7.83-9.24 2.7169475 2.4825556 5.2879143 5.1203007 7.7 7.9-2.7608608 2.4015184-5.3755342 4.9661023-7.83 7.68zm-4.31 4.91c-2.54-2-5.09-4-7.63-5.9 1-1.24 2-2.49 3-3.72 2.18 1.68 4.85 3.8 7.6 6.23-.96 1.03-1.94 2.15-2.97 3.39zm-9.23 11.25c-2.51-1.88-5.06-3.82-7.6-5.87 2.65-3.15 5.32-6.47 7.94-9.75 2.51 1.88 5.06 3.82 7.6 5.87-2.65 3.15-5.32 6.5-7.94 9.75zm-11.83-9.46c2.88-3.21 5.68-6.59 7.94-9.37.87.67 1.75 1.33 2.65 2-2.59 3.26-5.27 6.58-7.9 9.69-.95-.78-1.85-1.55-2.69-2.32zm-9.2-9.24c2.7602725-2.3950632 5.374934-4.9529568 7.83-7.66 2.79 2.47 5.49 4.62 7.7 6.32-2.24 2.75-5 6.08-7.83 9.24-2.7169475-2.4825556-5.2879143-5.1203007-7.7-7.9zm12.14-12.55c2.54 2 5.09 4 7.63 5.9-1 1.24-2 2.49-3 3.72-2.17-1.62-4.84-3.77-7.57-6.2.93-1.06 1.91-2.18 2.94-3.42zm9.23-11.25c2.51 1.88 5.06 3.82 7.6 5.87-2.65 3.15-5.32 6.47-7.94 9.75-2.51-1.88-5.06-3.82-7.6-5.87 2.65-3.15 5.32-6.5 7.94-9.75zm11.83 9.46c-2.88 3.21-5.68 6.59-7.94 9.37-.87-.67-1.75-1.33-2.65-2 2.59-3.26 5.27-6.58 7.9-9.69.95.78 1.85 1.55 2.69 2.32zm-12.17 14.66-2.66-2c1-1.2266667 2-2.47 3-3.73l2.66 2c-1 1.24-2 2.4833333-3 3.73zm-14.68-9.32c-2.4004207 2.6324386-4.9549087 5.1201427-7.65 7.45-.17-.19-.33-.39-.5-.59v-4.9c1.84995125-1.4668722 3.622346-3.0289828 5.31-4.68.92.93 1.87 1.83 2.84 2.72zm-8.15 18.45c1.26 1.46 2.5633333 2.8833333 3.91 4.27-1.3333333 1.3333333-2.63666667 2.51-3.91 3.53zm0-3.11v-4.89l.25-.2c2.4760841 2.855331 5.1137402 5.5664408 7.9 8.12-1 1.06-1.91 2-2.82 3-1.86-1.92-3.62-3.92-5.33-6.01zm37.85-2.46c2.4010143-2.6255856 4.9554906-5.1065998 7.65-7.43.17.19.33.39.5.59v4.9c-1.8499512 1.4668722-3.622346 3.0289828-5.31 4.68-.92-.93-1.87-1.83-2.84-2.72zm4.24-22.74c1.3333333-1.3333333 2.6366667-2.51 3.91-3.53v7.84c-1.26-1.4733333-2.5633333-2.9033333-3.91-4.29zm3.91-6.08c-1.8499512 1.46687223-3.622346 3.02898284-5.31 4.68-.92-.91-1.87-1.81-2.85-2.71 1.86-2 3.6-3.78 5.27-5.34.9697447.0868622 1.9343608.22371085 2.89.41zm-5.66-3.49c-1.2733333 1.25333333-2.6066667 2.62666667-4 4.12-1.22-1.09-2.51-2.24-3.91-3.34 2.60858-.49223585 5.2555189-.75324879 7.91-.78zm-27 5.06c-1.36 1.61-2.63 3.06-3.83 4.4-1.3333333-1.22-2.61-2.45333333-3.83-3.7 2.5650709-.01934826 5.1240149-.25350001 7.65-.7zm-10.56.58c1.71 1.82 3.48 3.56 5.38 5.3-1 1.06-1.92 2-2.83 3-1.86-1.92-3.62-3.89-5.33-6v-2.67c.93.17 1.86.29 2.78.37zm-2.78 42.63c1.84995125-1.4668722 3.622346-3.0289828 5.31-4.68.92.91 1.87 1.81 2.85 2.71-1.86 2-3.6 3.78-5.27 5.34-.96966409-.0875585-1.93424462-.2244021-2.89-.41zm5.66 3.49c1.28-1.25 2.6-2.62 4-4.12 1.24 1.09 2.53 2.2 3.93 3.34-2.61515.4934084-5.2688334.7544264-7.93.78zm27-5.05c1.36-1.62 2.63-3.07 3.83-4.41 1.3333333 1.22 2.61 2.4533333 3.83 3.7-2.5653371.0229307-5.1242599.2604255-7.65.71zm10.55-.59c-1.71-1.82-3.48-3.56-5.38-5.3 1-1.06 1.92-2 2.83-3 1.86 1.92 3.62 3.89 5.33 6v2.66c-.92-.16-1.85-.28-2.77-.36z" transform="translate(-1)"/></svg>
